<svg width="120" height="46" viewBox="0 0 120 46" fill="none" xmlns="http://www.w3.org/2000/svg">
<path d="M5.32855 12.7744C5.56235 12.4218 5.87468 12.1282 6.24103 11.9166C6.64978 11.6931 7.1074 11.574 7.57326 11.5699C8.59524 11.5151 11.5608 11.4878 15.5575 11.5699C15.9152 11.6221 16.2549 11.7603 16.5475 11.9726C16.84 12.1849 17.0768 12.465 17.2374 12.7889C17.398 13.1128 17.4776 13.4708 17.4695 13.8322C17.4614 14.1936 17.3658 14.5476 17.1908 14.864L12.5007 23.2588L8.96935 29.2447C8.86898 29.3907 7.71013 31.0696 7.993 32.4566C8.06181 32.7593 8.17889 33.0489 8.33974 33.3143C8.46319 33.5409 8.64216 33.7324 8.85986 33.871C9.09906 34.0258 9.37791 34.1082 9.66284 34.1082C14.0245 34.1082 17.1908 34.1082 17.8752 34.1082C18.2304 34.1169 18.5821 34.0353 18.8972 33.871C19.2132 33.7086 19.4784 33.4624 19.6636 33.1592C20.5092 31.6506 21.3761 30.1298 22.2642 28.5968C23.42 26.5894 24.5819 24.6184 25.7499 22.6839C29.3147 28.8888 32.8855 35.0967 36.4624 41.3077C36.6573 41.7499 36.751 42.23 36.7368 42.7131C36.7226 43.1961 36.6008 43.6699 36.3803 44.0999C35.9819 44.8027 35.3285 45.3254 34.5554 45.5599L14.1249 45.6237C13.7121 45.6473 13.3011 45.5535 12.9394 45.3533C12.5777 45.1531 12.2801 44.8545 12.0809 44.4922C5.53842 33.506 0.80264 25.4031 0.364649 24.4541C0.189354 24.0787 0.0724246 23.6787 0.017906 23.2679C-0.0296199 22.7818 0.0231777 22.2911 0.173028 21.8262L2.45423 17.4828L5.32855 12.7744Z" fill="white"/>
<path d="M50.7793 20.6312L39.4463 1.09492C39.2229 0.784138 38.9289 0.530823 38.5886 0.355807C38.2569 0.175736 37.8888 0.0728089 37.5118 0.0546875L17.6106 0.100312C17.0904 0.104918 16.581 0.249742 16.1362 0.519528C15.6914 0.789315 15.3275 1.17408 15.083 1.63328C14.8965 2.03171 14.7998 2.46626 14.7998 2.90619C14.7998 3.34613 14.8965 3.78068 15.083 4.17911L32.4567 34.3458L43.0324 34.4005C43.6686 34.4412 44.3028 34.2953 44.8573 33.9808C45.2461 33.749 45.5819 33.4381 45.8428 33.0683C46.6745 31.9585 47.4305 30.7939 48.1058 29.5826C49.2476 27.9518 50.2546 26.2306 51.1169 24.4362C51.4027 23.8552 51.5406 23.2127 51.5184 22.5656C51.4566 21.8647 51.2007 21.1948 50.7793 20.6312ZM42.8134 29.026C42.6577 29.2246 42.4577 29.384 42.2294 29.4914C42.0952 29.5489 41.9541 29.5888 41.8096 29.61C39.316 29.7704 36.8122 29.5769 34.3729 29.0351C33.9081 28.8683 33.4617 28.6543 33.0407 28.3964C32.5827 28.0849 32.1631 27.7204 31.7906 27.3105C31.0423 26.4619 26.2883 18.5142 20.0926 7.54617C24.5728 7.72866 27.9308 7.89291 29.4272 7.92028C30.0084 7.92181 30.5819 8.05273 31.1062 8.30353C31.7415 8.63879 32.2767 9.1362 32.6574 9.74525C33.5699 11.0501 37.5027 17.8481 42.7951 27.2375C42.9624 27.5051 43.0525 27.8137 43.0558 28.1292C43.059 28.4447 42.9751 28.755 42.8134 29.026Z" fill="white"/>
<path d="M62.2221 30.267H57.1214L56.2089 32.603H51.6465L57.5046 19.1621H61.9484L67.8157 32.5756H63.1255L62.2221 30.267ZM60.9721 27.0095L59.6672 23.6333L58.4171 27.0095H60.9721Z" fill="white"/>
<path d="M67.9521 19.0803C67.9521 17.8302 68.9741 16.8721 70.5618 16.8721C72.1496 16.8721 73.1715 17.7846 73.1715 18.9982C73.1661 19.3247 73.0923 19.6466 72.9548 19.9429C72.8173 20.2392 72.6192 20.5033 72.3733 20.7183C72.1274 20.9333 71.8391 21.0943 71.5271 21.1909C71.215 21.2875 70.8862 21.3177 70.5618 21.2794C68.9741 21.2794 67.9521 20.3213 67.9521 19.0803ZM68.3993 22.128H72.7244V32.6033H68.3993V22.128Z" fill="white"/>
<path d="M90.1156 34.2914C89.6321 34.8502 89.0294 35.2935 88.352 35.5888C87.6746 35.8841 86.9396 36.0238 86.2011 35.9977C83.8286 35.9977 82.3504 35.2495 79.9323 32.7219C78.3294 32.4414 76.8777 31.6017 75.8353 30.3521C74.7928 29.1025 74.227 27.5238 74.2385 25.8965C74.2385 21.836 77.4413 18.8887 81.8121 18.8887C86.1828 18.8887 89.3857 21.836 89.3857 25.8965C89.4039 27.2768 88.998 28.6295 88.2229 29.7718C87.4478 30.914 86.3408 31.7909 85.0514 32.2839C85.2042 32.4651 85.3961 32.6092 85.6126 32.7056C85.8291 32.802 86.0646 32.8482 86.3015 32.8405C87 32.8024 87.6555 32.491 88.1264 31.9737L90.1156 34.2914ZM78.8009 25.8965C78.7542 26.3198 78.7973 26.7482 78.9273 27.1537C79.0574 27.5592 79.2714 27.9327 79.5556 28.2499C79.8397 28.5671 80.1875 28.8208 80.5763 28.9945C80.9651 29.1682 81.3862 29.258 81.8121 29.258C82.2379 29.258 82.659 29.1682 83.0478 28.9945C83.4366 28.8208 83.7844 28.5671 84.0685 28.2499C84.3527 27.9327 84.5667 27.5592 84.6968 27.1537C84.8268 26.7482 84.8699 26.3198 84.8232 25.8965C84.8699 25.4733 84.8268 25.0449 84.6968 24.6394C84.5667 24.2339 84.3527 23.8604 84.0685 23.5432C83.7844 23.226 83.4366 22.9723 83.0478 22.7986C82.659 22.6248 82.2379 22.5351 81.8121 22.5351C81.3862 22.5351 80.9651 22.6248 80.5763 22.7986C80.1875 22.9723 79.8397 23.226 79.5556 23.5432C79.2714 23.8604 79.0574 24.2339 78.9273 24.6394C78.7973 25.0449 78.7542 25.4733 78.8009 25.8965Z" fill="white"/>
<path d="M102.216 29.1994V32.603H91.0381V19.1621H101.988V22.5748H95.5275V24.1443H101.203V27.4018H95.5275V29.1994H102.216Z" fill="white"/>
<path d="M115.903 32.603V26.4893L112.992 31.3985H110.976L108.056 26.7083V32.603H103.94V19.1621H107.691L112.062 26.316L116.286 19.1621H120V32.5756L115.903 32.603Z" fill="white"/>
<path d="M5.32829 12.6836C5.55833 12.3278 5.87151 12.0334 6.24077 11.8258C6.64952 11.6023 7.10715 11.4832 7.573 11.4791C8.59498 11.4243 11.5514 11.397 15.5572 11.4791C15.9141 11.5326 16.2528 11.6717 16.5442 11.8845C16.8357 12.0974 17.0713 12.3776 17.2309 12.7013C17.3905 13.025 17.4693 13.3825 17.4607 13.7433C17.4521 14.1041 17.3563 14.4574 17.1814 14.7731L12.5004 23.168L8.95997 29.1995C8.86872 29.3364 7.70987 31.0244 7.99274 32.4023C8.06155 32.705 8.17863 32.9946 8.33948 33.26C8.45922 33.4917 8.63882 33.687 8.8596 33.8258C9.09703 33.9771 9.37193 34.0592 9.65346 34.063C14.0242 34.063 17.1906 34.063 17.8658 34.063C18.2202 34.0741 18.5717 33.9957 18.8878 33.8349C19.2028 33.667 19.4674 33.4182 19.6543 33.114C20.4937 31.6084 21.3606 30.0846 22.2457 28.5516C23.4046 26.5442 24.5634 24.5641 25.7314 22.6296C29.3083 28.8345 32.8822 35.0485 36.4531 41.2716C36.6479 41.7138 36.7417 42.194 36.7275 42.677C36.7132 43.16 36.5914 43.6338 36.3709 44.0638C35.9696 44.7642 35.3173 45.286 34.546 45.5238H14.1429C13.7301 45.5473 13.3191 45.4536 12.9574 45.2534C12.5957 45.0531 12.2981 44.7546 12.0989 44.3923C5.53816 33.4425 0.802382 25.3488 0.36439 24.3998C0.189095 24.0244 0.0721659 23.6244 0.0176472 23.2136C-0.0311993 22.7275 0.0216273 22.2365 0.172769 21.7719L2.45397 17.4285L5.32829 12.6836Z" fill="white"/>
<path d="M50.7423 20.5765L39.4184 1.04023C39.1922 0.735304 38.9016 0.483993 38.5672 0.304194C38.2329 0.124396 37.863 0.0205321 37.4839 0L17.5918 0.0456241C17.0711 0.0482664 16.561 0.192275 16.1158 0.462271C15.6707 0.732268 15.3072 1.11811 15.0642 1.57859C14.8754 1.97475 14.7773 2.40808 14.7773 2.84694C14.7773 3.28581 14.8754 3.71914 15.0642 4.11529L32.4014 34.282L42.977 34.3367C43.5286 34.389 44.0841 34.2931 44.5862 34.0589C45.0883 33.8247 45.5188 33.4607 45.8331 33.0045C46.6664 31.899 47.4226 30.7374 48.0961 29.5279C49.2038 27.889 50.186 26.1686 51.0343 24.3815C51.3128 23.8143 51.4505 23.1883 51.4357 22.5566C51.3957 21.8444 51.1553 21.158 50.7423 20.5765ZM42.7763 28.9713C42.6175 29.1668 42.4183 29.3256 42.1923 29.4367C42.0581 29.4942 41.917 29.5341 41.7726 29.5553C39.2785 29.7128 36.7747 29.5161 34.3358 28.9713C33.8721 28.8022 33.4259 28.5882 33.0036 28.3326C32.5451 28.0218 32.1254 27.6572 31.7535 27.2467C30.9597 26.3342 26.2786 18.4595 20.0464 7.49148C24.5358 7.67397 27.8846 7.8291 29.3811 7.8656C29.9533 7.85839 30.5202 7.97675 31.0418 8.21234C31.6761 8.54472 32.2113 9.03896 32.593 9.64494C33.5055 10.9589 37.4291 17.7569 42.7215 27.1463C42.9005 27.4149 43.0006 27.7284 43.0102 28.051C43.0199 28.3736 42.9389 28.6925 42.7763 28.9713Z" fill="white"/>
<path d="M55.5694 44.0818H52.5765L52.029 45.4688H50.8428L53.5346 39.4829H54.6296L57.367 45.4688H56.1717L55.5694 44.0818ZM55.2044 43.1693L54.073 40.5505L52.9415 43.215L55.2044 43.1693Z" fill="white"/>
<path d="M58.0967 39.4829H59.2099V45.4688H58.0967V39.4829Z" fill="white"/>
<path d="M67.6689 45.5606L66.9207 44.8398C66.3589 45.3107 65.6462 45.5634 64.9133 45.5515C63.6449 45.5515 62.7324 44.8945 62.7324 43.9547C62.7324 43.2155 63.143 42.6954 64.1194 42.1297C63.922 41.968 63.7608 41.7667 63.6461 41.5388C63.5313 41.3109 63.4656 41.0614 63.4533 40.8066C63.4533 39.9671 64.1376 39.4014 65.187 39.4014C66.2363 39.4014 66.7838 39.9032 66.7838 40.7153C66.7838 41.3267 66.428 41.7738 65.5611 42.2666L66.8477 43.4893C67.0092 43.1732 67.123 42.835 67.1853 42.4856L68.0978 42.7684C67.9985 43.2523 67.8164 43.7153 67.5594 44.1371L68.3077 44.8489L67.6689 45.5606ZM66.2911 44.2284L64.7034 42.7137C64.0099 43.106 63.7909 43.4163 63.7909 43.8452C63.7909 44.274 64.2745 44.6846 65.0045 44.6846C65.4734 44.6868 65.9283 44.5254 66.2911 44.2284ZM64.4661 40.8066C64.4661 41.0712 64.5848 41.272 65.0045 41.7191C65.698 41.345 65.917 41.0895 65.917 40.8066C65.917 40.5237 65.6706 40.2317 65.2235 40.2317C64.7764 40.2317 64.4205 40.4416 64.4205 40.8066H64.4661Z" fill="white"/>
<path d="M76.9038 43.8446C76.9038 44.8666 76.1008 45.4688 74.5587 45.4688H71.584V39.4829H74.3853C75.827 39.4829 76.5935 40.0943 76.5935 41.0433C76.6009 41.312 76.5331 41.5774 76.3977 41.8096C76.2622 42.0417 76.0646 42.2314 75.827 42.3572C76.1479 42.4474 76.4289 42.6435 76.6243 42.9135C76.8198 43.1834 76.9183 43.5116 76.9038 43.8446ZM72.6972 40.3589V41.974H74.2667C75.0423 41.974 75.4712 41.7002 75.4712 41.1528C75.4712 40.6053 75.0423 40.3224 74.2667 40.3224L72.6972 40.3589ZM75.754 43.7351C75.754 43.1328 75.3069 42.8226 74.4674 42.8226H72.6425V44.5472H74.4674C75.3343 44.5928 75.754 44.3282 75.754 43.7351Z" fill="white"/>
<path d="M77.9893 39.127H79.0569V45.4687H77.9893V39.127Z" fill="white"/>
<path d="M80.0886 43.1877C80.0704 42.702 80.1979 42.2219 80.4547 41.8093C80.7115 41.3966 81.0859 41.0701 81.5297 40.8719C81.9735 40.6737 82.4665 40.6128 82.9452 40.697C83.4239 40.7812 83.8665 41.0066 84.2161 41.3444C84.5656 41.6821 84.8062 42.1167 84.9068 42.5922C85.0074 43.0677 84.9635 43.5625 84.7807 44.0129C84.5978 44.4632 84.2845 44.8486 83.8809 45.1195C83.4773 45.3903 83.0019 45.5343 82.5158 45.5328C82.1994 45.5505 81.8827 45.5026 81.5857 45.3921C81.2887 45.2815 81.0177 45.1108 80.7898 44.8906C80.5619 44.6704 80.382 44.4055 80.2613 44.1124C80.1406 43.8194 80.0818 43.5046 80.0886 43.1877ZM83.8754 43.1877C83.8629 42.9219 83.7727 42.6656 83.6159 42.4506C83.4591 42.2355 83.2427 42.0712 82.9934 41.9781C82.7441 41.8849 82.473 41.8669 82.2136 41.9264C81.9542 41.9858 81.7179 42.1201 81.5341 42.3125C81.3503 42.505 81.227 42.7471 81.1796 43.009C81.1321 43.2708 81.1625 43.5408 81.267 43.7856C81.3715 44.0303 81.5455 44.239 81.7675 44.3858C81.9895 44.5325 82.2497 44.6109 82.5158 44.6112C82.701 44.6154 82.8851 44.581 83.0562 44.5101C83.2273 44.4392 83.3818 44.3334 83.5097 44.1995C83.6377 44.0655 83.7363 43.9064 83.7993 43.7322C83.8622 43.5579 83.8882 43.3725 83.8754 43.1877Z" fill="white"/>
<path d="M85.6086 43.188C85.604 42.8682 85.6659 42.551 85.7904 42.2563C85.9149 41.9617 86.0992 41.6962 86.3317 41.4766C86.5642 41.2569 86.8398 41.088 87.141 40.9805C87.4422 40.873 87.7625 40.8293 88.0815 40.8521C88.4729 40.8233 88.8643 40.9078 89.2089 41.0955C89.5536 41.2832 89.8369 41.5661 90.025 41.9105L89.2038 42.3942C89.0881 42.1975 88.9226 42.0349 88.7239 41.9227C88.5252 41.8106 88.3005 41.7528 88.0723 41.7554C87.7133 41.7841 87.3783 41.947 87.134 42.2117C86.8896 42.4763 86.754 42.8233 86.754 43.1835C86.754 43.5436 86.8896 43.8906 87.134 44.1552C87.3783 44.4199 87.7133 44.5828 88.0723 44.6115C88.2998 44.6159 88.5243 44.56 88.7231 44.4494C88.9218 44.3388 89.0877 44.1775 89.2038 43.9819L90.025 44.4564C89.8368 44.8019 89.554 45.0867 89.2098 45.2774C88.8656 45.4681 88.4742 45.5568 88.0815 45.5331C87.762 45.5546 87.4415 45.5096 87.1403 45.401C86.8391 45.2925 86.5636 45.1227 86.3313 44.9023C86.0989 44.682 85.9148 44.4159 85.7904 44.1209C85.666 43.8258 85.6041 43.5082 85.6086 43.188Z" fill="white"/>
<path d="M92.7716 43.5069L91.9778 44.2642V45.4687H90.9102V39.127H91.9778V42.9594L94.1951 40.9063H95.4726L93.5655 42.8225L95.6551 45.4687H94.3593L92.7716 43.5069Z" fill="white"/>
<path d="M95.8284 43.1879C95.8251 42.8685 95.8879 42.5519 96.0129 42.2579C96.1378 41.9639 96.3222 41.6989 96.5544 41.4796C96.7866 41.2603 97.0616 41.0913 97.3622 40.9833C97.6628 40.8753 97.9825 40.8305 98.3012 40.8519C98.6939 40.8225 99.0868 40.9066 99.433 41.0943C99.7793 41.282 100.064 41.5653 100.254 41.9104L99.4327 42.394C99.3162 42.196 99.1492 42.0325 98.9488 41.9203C98.7484 41.808 98.5217 41.7511 98.2921 41.7553C97.933 41.784 97.598 41.9469 97.3537 42.2116C97.1094 42.4762 96.9737 42.8232 96.9737 43.1833C96.9737 43.5435 97.1094 43.8905 97.3537 44.1551C97.598 44.4197 97.933 44.5826 98.2921 44.6114C98.521 44.6174 98.7474 44.5623 98.9479 44.4516C99.1485 44.3409 99.3158 44.1787 99.4327 43.9817L100.254 44.4562C100.063 44.8018 99.7787 45.0863 99.4332 45.2768C99.0876 45.4674 98.6951 45.5562 98.3012 45.533C97.9817 45.5544 97.6612 45.5095 97.36 45.4009C97.0588 45.2923 96.7833 45.1225 96.551 44.9022C96.3186 44.6819 96.1345 44.4158 96.0101 44.1207C95.8857 43.8257 95.8239 43.5081 95.8284 43.1879Z" fill="white"/>
<path d="M105.583 42.8864V45.5052H104.516V42.9868C104.516 42.1746 104.114 41.7823 103.43 41.7823C103.251 41.7725 103.072 41.8024 102.907 41.8698C102.741 41.9372 102.592 42.0405 102.471 42.1721C102.349 42.3038 102.259 42.4607 102.205 42.6315C102.152 42.8023 102.137 42.9828 102.161 43.1601V45.4687H101.094V39.127H102.161V41.4355C102.36 41.239 102.597 41.0857 102.858 40.9852C103.118 40.8847 103.397 40.8392 103.676 40.8515C103.941 40.8378 104.206 40.8821 104.453 40.9813C104.699 41.0805 104.921 41.2323 105.102 41.4261C105.284 41.6198 105.421 41.8509 105.504 42.1031C105.587 42.3553 105.614 42.6226 105.583 42.8864Z" fill="white"/>
<path d="M110.775 42.7953V45.4689H109.762V44.9123C109.595 45.1284 109.376 45.2986 109.126 45.4071C108.875 45.5156 108.601 45.5589 108.329 45.5328C107.28 45.5328 106.623 44.9579 106.623 44.1641C106.623 43.3702 107.134 42.8045 108.521 42.8045H109.698V42.7315C109.698 42.111 109.324 41.746 108.567 41.746C108.068 41.7387 107.58 41.8958 107.18 42.1931L106.76 41.4175C107.328 41.028 108.006 40.8298 108.694 40.8517C110.008 40.8517 110.775 41.4814 110.775 42.7953ZM109.698 44.0454V43.5071H108.603C107.873 43.5071 107.691 43.7808 107.691 44.1184C107.691 44.456 108.019 44.748 108.603 44.748C108.835 44.754 109.063 44.6902 109.259 44.5649C109.454 44.4396 109.607 44.2587 109.698 44.0454Z" fill="white"/>
<path d="M111.997 39.5105C111.998 39.4231 112.017 39.3367 112.052 39.2567C112.088 39.1767 112.139 39.1047 112.203 39.045C112.267 38.9853 112.342 38.9392 112.424 38.9094C112.507 38.8797 112.594 38.8669 112.681 38.8718C112.767 38.8656 112.853 38.8766 112.934 38.9043C113.015 38.9319 113.089 38.9755 113.153 39.0325C113.217 39.0895 113.269 39.1588 113.305 39.2362C113.342 39.3136 113.362 39.3976 113.366 39.4832C113.366 39.6647 113.294 39.8387 113.165 39.9671C113.037 40.0954 112.863 40.1675 112.681 40.1675C112.5 40.1675 112.326 40.0954 112.198 39.9671C112.069 39.8387 111.997 39.6647 111.997 39.4832V39.5105ZM112.143 40.9066H113.211V45.469H112.143V40.9066Z" fill="white"/>
<path d="M119.115 42.8866V45.5054H118.038V42.9869C118.038 42.1748 117.637 41.7825 116.952 41.7825C116.773 41.7727 116.595 41.8026 116.429 41.87C116.263 41.9374 116.114 42.0406 115.993 42.1723C115.872 42.304 115.781 42.4609 115.728 42.6317C115.674 42.8025 115.659 42.983 115.684 43.1603V45.4689H114.616V40.9065H115.629V41.4905C115.829 41.2743 116.074 41.1049 116.347 40.9945C116.62 40.8841 116.914 40.8353 117.208 40.8517C117.473 40.838 117.738 40.8823 117.984 40.9815C118.23 41.0807 118.452 41.2325 118.634 41.4263C118.815 41.62 118.952 41.8511 119.036 42.1033C119.119 42.3555 119.146 42.6228 119.115 42.8866Z" fill="white"/>
</svg>
