<svg width="126" height="119" viewBox="0 0 126 119" fill="none" xmlns="http://www.w3.org/2000/svg">
<path d="M45.0904 119C36.1728 119.001 27.455 116.815 20.0398 112.717C12.6245 108.619 6.84499 102.794 3.43215 95.9788C0.0193109 89.1634 -0.873475 81.6638 0.866717 74.4286C2.60691 67.1934 6.9019 60.5477 13.2084 55.3321L70.5887 7.86466C76.676 2.829 84.9321 0 93.5408 0C102.15 0 110.406 2.829 116.493 7.86466C122.58 12.9003 126 19.7301 126 26.8516C126 33.9731 122.58 40.8029 116.493 45.8386L66.7585 86.975C62.9795 89.9609 57.9548 91.627 52.729 91.627C47.5033 91.627 42.4785 89.9609 38.6995 86.975C34.9839 83.8964 32.8981 79.7231 32.9008 75.3727C32.9035 71.0223 34.9945 66.8508 38.714 63.7754L75.6884 33.1826C76.3537 32.6127 77.1497 32.1581 78.0297 31.8454C78.9097 31.5327 79.8562 31.3681 80.814 31.3612C81.7717 31.3543 82.7216 31.5053 83.608 31.8053C84.4945 32.1053 85.2998 32.5484 85.9771 33.1086C86.6544 33.6689 87.19 34.3351 87.5526 35.0684C87.9153 35.8018 88.0978 36.5875 88.0895 37.3798C88.0812 38.1721 87.8822 38.9551 87.5042 39.6831C87.1261 40.4111 86.5766 41.0695 85.8877 41.6199L48.9133 72.2127C47.9002 73.0518 47.3312 74.1892 47.3312 75.3752C47.3312 76.5611 47.9002 77.6986 48.9133 78.5377C49.9436 79.3504 51.3126 79.8038 52.7362 79.8038C54.1599 79.8038 55.5289 79.3504 56.5592 78.5377L106.294 37.4013C109.669 34.6015 111.564 30.8087 111.564 26.8546C111.564 22.9005 109.669 19.1077 106.294 16.3079C102.858 13.5942 98.2909 12.0799 93.5408 12.0799C88.7907 12.0799 84.2233 13.5942 80.788 16.3079L23.4078 63.7754C20.5067 66.12 18.1968 68.9176 16.6121 72.006C15.0273 75.0944 14.1991 78.4123 14.1755 81.7673C14.1519 85.1224 14.9333 88.448 16.4745 91.5515C18.0156 94.655 20.2859 97.4746 23.1538 99.847C26.0217 102.219 29.4302 104.098 33.1818 105.372C36.9333 106.647 40.9535 107.294 45.0092 107.274C49.0649 107.255 53.0757 106.57 56.8091 105.259C60.5424 103.948 63.9242 102.037 66.7585 99.637L111.393 62.7192C112.059 62.1493 112.855 61.6947 113.735 61.382C114.615 61.0693 115.561 60.9047 116.519 60.8978C117.477 60.8909 118.426 61.0419 119.313 61.3419C120.199 61.6419 121.005 62.085 121.682 62.6452C122.359 63.2055 122.895 63.8717 123.258 64.605C123.62 65.3384 123.803 66.1241 123.794 66.9164C123.786 67.7087 123.587 68.4917 123.209 69.2197C122.831 69.9477 122.282 70.6061 121.593 71.1565L76.9651 108.068C72.7897 111.545 67.8216 114.301 62.3488 116.178C56.876 118.054 51.0074 119.014 45.0831 119H45.0904Z" fill="#408CF1"/>
</svg>
